# xmcd CD database file generated by OrangeCD 6.4
#
# Track frame offsets:
#	150
#	11632
#	23765
#	37392
#	49380
#	71667
#	85380
#	99042
#	108960
#	120097
#	127677
#	146407
#	160182
#
# Disc length: 2404 seconds
#
# Revision: 1
# Processed by: cddbd v1.5.2PL0 Copyright (c) Steve Scherf et al.
# Submitted via: OrangeCD 6.4
#
DISCID=9f09620d
DTITLE=Steve Earle - Train A Comin'
DYEAR=1995
DGENRE=Country
TTITLE0=Mystery Train <Part II>
TTITLE1=Hometown Blues
TTITLE2=Sometimes She Forgets
TTITLE3=Mercenary Song
TTITLE4=Goodbye
TTITLE5=Tom Ames' Prayer
TTITLE6=Nothin' Without You
TTITLE7=Angel Is The Devil
TTITLE8=I'm Looking Through You
TTITLE9=Northern Winds
TTITLE10=Ben McCulloch
TTITLE11=Rivers Of Babylon
TTITLE12=Tecumseh Valley
EXTD=
EXTT0=
EXTT1=
EXTT2=
EXTT3=
EXTT4=
EXTT5=
EXTT6=
EXTT7=
EXTT8=
EXTT9=
EXTT10=
EXTT11=
EXTT12=
PLAYORDER=
